<?xml version="1.0" encoding="utf-8"?>
<!-- Generator: Adobe Illustrator 17.0.0, SVG Export Plug-In . SVG Version: 6.00 Build 0)  -->
<!DOCTYPE svg PUBLIC "-//W3C//DTD SVG 1.1//EN" "http://www.w3.org/Graphics/SVG/1.1/DTD/svg11.dtd">
<svg version="1.1" id="Layer_1" xmlns="http://www.w3.org/2000/svg" xmlns:xlink="http://www.w3.org/1999/xlink" x="0px" y="0px"
	 width="611px" height="100px" viewBox="0 0 611 100" enable-background="new 0 0 611 100" xml:space="preserve">
<rect x="-1" y="-1" fill="#FAFAE7" width="614" height="102"/>
<g>
	<g>
		<path fill="#61CAE7" stroke="#61CAE7" stroke-width="0.8" stroke-miterlimit="10" d="M185.051,42.511
			c-3.274-1.403-6.536-2.836-9.821-4.21c-0.739-0.309-1.095,0.723-0.7,1.203c0.544,0.663,1.093,1.321,1.651,1.972
			c-19.037,0.027-38.163-0.444-57.186,0.262c-1.454-5.927-7.12-8.514-12.333-10.529c-0.542-0.21-0.996,0.4-0.884,0.884
			c0.974,4.222,4.1,8.035,8.117,9.699c-5.183,0.793-10.044,2.897-14.382,5.936c-0.534,0.374-0.4,1.058,0.169,1.296
			c6.287,2.629,13.491-1.739,18.363-5.498c0.161-0.125,0.244-0.286,0.273-0.453c0.058,0.017,0.119,0.031,0.189,0.034
			c19.24,0.642,38.582,0.061,57.835-0.001c-0.582,0.846-1.241,1.632-2.015,2.356c-0.611,0.571,0.022,1.635,0.815,1.399
			c3.248-0.967,6.489-1.952,9.727-2.953C185.432,43.735,185.695,42.787,185.051,42.511z M117.211,40.844
			c-2.992-2.585-6.081-5.075-9.174-7.538C111.846,34.892,115.652,36.942,117.211,40.844z M107.872,33.833
			c2.875,2.562,5.775,5.114,8.748,7.56C112.67,40.201,109.448,37.656,107.872,33.833z M115.438,42.744
			c-2.115,1.099-4.267,2.123-6.481,3.012c-1.908,0.766-5.098,2.631-7.123,2.168c-0.006-0.001-0.008,0.003-0.014,0.002
			C106.034,45.278,110.569,43.663,115.438,42.744z M114.455,44.324c-3.01,1.96-6.425,3.772-9.865,4.022
			c1.474-0.395,2.994-1.14,4.105-1.554C110.658,46.06,112.573,45.229,114.455,44.324z"/>
		<path fill="#61CAE7" stroke="#61CAE7" stroke-width="0.8" stroke-miterlimit="10" d="M417.58,43.909
			c3.238,1.001,6.479,1.987,9.727,2.953c0.792,0.236,1.426-0.828,0.815-1.399c-0.774-0.724-1.434-1.51-2.015-2.356
			c19.253,0.062,38.595,0.643,57.835,0.001c0.069-0.002,0.131-0.017,0.189-0.034c0.029,0.167,0.112,0.328,0.273,0.453
			c4.871,3.759,12.076,8.127,18.363,5.498c0.569-0.238,0.703-0.922,0.169-1.296c-4.339-3.04-9.199-5.143-14.382-5.936
			c4.017-1.665,7.143-5.477,8.117-9.699c0.112-0.485-0.342-1.094-0.884-0.884c-5.213,2.015-10.878,4.602-12.333,10.529
			c-19.022-0.706-38.148-0.235-57.185-0.262c0.558-0.65,1.107-1.309,1.651-1.972c0.395-0.481,0.039-1.512-0.7-1.203
			c-3.286,1.374-6.548,2.807-9.821,4.21C416.753,42.787,417.016,43.735,417.58,43.909z M494.411,33.306
			c-3.093,2.463-6.182,4.953-9.174,7.538C486.796,36.942,490.602,34.892,494.411,33.306z M485.827,41.393
			c2.973-2.446,5.874-4.998,8.749-7.56C493,37.656,489.778,40.201,485.827,41.393z M500.628,47.926
			c-0.005,0.001-0.008-0.003-0.014-0.002c-2.025,0.463-5.216-1.402-7.123-2.168c-2.213-0.889-4.366-1.913-6.481-3.012
			C491.879,43.663,496.414,45.278,500.628,47.926z M493.753,46.791c1.111,0.414,2.631,1.159,4.105,1.554
			c-3.441-0.249-6.855-2.062-9.865-4.022C489.875,45.229,491.79,46.06,493.753,46.791z"/>
		<g>
			<rect x="112.606" y="3.86" fill="none" width="373.672" height="73.273"/>
			
				<text transform="matrix(1 0 0 1 225.0167 71.8535)" fill="#61CAE7" stroke="#61CAE7" stroke-width="0.8" stroke-miterlimit="10" font-family="'LillyMae-Regular'" font-size="92">+Info</text>
		</g>
	</g>
</g>
</svg>
