<?xml version="1.0" encoding="utf-8"?>
<!-- Generator: Adobe Illustrator 17.0.0, SVG Export Plug-In . SVG Version: 6.00 Build 0)  -->
<!DOCTYPE svg PUBLIC "-//W3C//DTD SVG 1.1//EN" "http://www.w3.org/Graphics/SVG/1.1/DTD/svg11.dtd">
<svg version="1.1" id="Layer_1" xmlns="http://www.w3.org/2000/svg" xmlns:xlink="http://www.w3.org/1999/xlink" x="0px" y="0px"
	 width="611px" height="200px" viewBox="0 0 611 200" enable-background="new 0 0 611 200" xml:space="preserve">
<rect x="-1" y="-3" fill="#FAFAE7" width="614" height="206"/>
<g>
	<g>
		<rect x="85.747" y="18.097" fill="none" width="439.506" height="163.806"/>
		<text transform="matrix(1 0 0 1 165.1113 86.0923)"><tspan x="0" y="0" fill="#DCB1D2" stroke="#DCB1D2" stroke-width="0.8" stroke-miterlimit="10" font-family="'LillyMae-Regular'" font-size="92">Caballeros </tspan><tspan x="31.601" y="85" fill="#DCB1D2" stroke="#DCB1D2" stroke-width="0.8" stroke-miterlimit="10" font-family="'LillyMae-Regular'" font-size="92">de honor</tspan></text>
	</g>
	<g>
		<path fill="#DCB1D2" stroke="#DCB1D2" stroke-width="0.8" stroke-miterlimit="10" d="M109.074,94.374
			c0.747-2.349,1.888-4.131,3.424-5.346c1.534-1.215,3.397-1.822,5.586-1.822c2.589,0,4.672,0.791,6.247,2.373
			c1.575,1.582,2.363,3.674,2.363,6.277c0,2.283-0.548,4.118-1.642,5.506c-1.095,1.388-3.197,2.737-6.307,4.044l-0.4,0.18
			c-5.099,2.149-8.189,4.552-9.27,7.208c-1.108-2.669-4.192-5.072-9.25-7.208c-0.187-0.08-0.334-0.14-0.44-0.18
			c-3.123-1.308-5.229-2.649-6.317-4.024c-1.088-1.375-1.631-3.217-1.631-5.526c0-2.603,0.79-4.695,2.373-6.277
			c1.581-1.582,3.66-2.373,6.236-2.373c2.202,0,4.068,0.607,5.596,1.822C107.169,90.243,108.314,92.025,109.074,94.374z"/>
	</g>
	<g>
		<path fill="#DCB1D2" stroke="#DCB1D2" stroke-width="0.8" stroke-miterlimit="10" d="M482.32,94.374
			c0.747-2.349,1.888-4.131,3.424-5.346c1.534-1.215,3.397-1.822,5.586-1.822c2.589,0,4.672,0.791,6.247,2.373
			c1.575,1.582,2.363,3.674,2.363,6.277c0,2.283-0.548,4.118-1.642,5.506c-1.095,1.388-3.197,2.737-6.307,4.044l-0.4,0.18
			c-5.099,2.149-8.189,4.552-9.27,7.208c-1.108-2.669-4.192-5.072-9.25-7.208c-0.187-0.08-0.334-0.14-0.44-0.18
			c-3.123-1.308-5.229-2.649-6.317-4.024c-1.088-1.375-1.631-3.217-1.631-5.526c0-2.603,0.79-4.695,2.373-6.277
			c1.581-1.582,3.66-2.373,6.236-2.373c2.202,0,4.068,0.607,5.596,1.822C480.414,90.243,481.559,92.025,482.32,94.374z"/>
	</g>
</g>
</svg>
