<?xml version="1.0" encoding="utf-8"?>
<!-- Generator: Adobe Illustrator 17.0.0, SVG Export Plug-In . SVG Version: 6.00 Build 0)  -->
<!DOCTYPE svg PUBLIC "-//W3C//DTD SVG 1.1//EN" "http://www.w3.org/Graphics/SVG/1.1/DTD/svg11.dtd">
<svg version="1.1" id="Layer_1" xmlns="http://www.w3.org/2000/svg" xmlns:xlink="http://www.w3.org/1999/xlink" x="0px" y="0px"
	 width="611px" height="100px" viewBox="0 0 611 100" enable-background="new 0 0 611 100" xml:space="preserve">
<rect x="-1" y="-1" fill="#FAFAE7" width="614" height="102"/>
<g>
	<g>
		<g>
			<path fill="#DCB1D2" stroke="#DCB1D2" stroke-width="0.8" stroke-miterlimit="10" d="M273.326,33.04
				c0.247-9.513-1.853-16.43-5.065-20.384c-3.089-3.334-6.917-3.705-11.117,1.113c-7.906,8.648-11.489,26.313-12.354,37.802
				c-0.742,11.611-0.494,30.141,6.301,39.654c4.447,6.176,10.5,2.223,14.576-2.349c7.166-7.783,12.724-21.124,15.441-29.03
				c0.494-1.234,2.349-0.74,1.854,0.618c-2.965,8.03-8.277,21.371-15.689,29.525c-5.559,6.177-12.107,10.253-18.901,7.041
				c-12.353-6.299-12.107-35.7-11.366-45.706c0.865-12.725,5.559-37.802,18.777-43.485c5.312-2.471,10.377-0.865,13.96,3.583
				c3.581,4.323,5.806,11.611,5.559,21.619C275.303,34.398,273.326,34.398,273.326,33.04z"/>
			<path fill="#DCB1D2" stroke="#DCB1D2" stroke-width="0.8" stroke-miterlimit="10" d="M285.062,85.047
				c1.483,5.93,4.694-1.113,5.188-2.718c3.83-8.03,4.696-12.724,8.03-22.977c0.124-1.113,2.347-0.618,1.854,0.987
				c-3.459,10.129-4.325,14.949-8.03,23.348c-1.607,3.459-4.325,7.906-7.783,5.806c-8.153-5.188-4.325-32.735-4.448-40.641
				c-0.371-3.089,5.806-2.347,6.424-0.124C286.422,52.681,283.086,77.759,285.062,85.047z M287.162,40.946
				c0,2.1-1.605,3.705-3.581,3.705c-2.1,0-3.583-1.605-3.583-3.705c0-2.101,1.483-3.707,3.583-3.707
				C285.556,37.24,287.162,38.845,287.162,40.946z"/>
			<path fill="#DCB1D2" stroke="#DCB1D2" stroke-width="0.8" stroke-miterlimit="10" d="M304.21,83.195
				c1.113,7.164,3.212,10.253,7.412,0.987c4.448-10.253,8.524-29.03,8.03-37.8c-0.124-1.113,0.124-1.36,0.989-1.36
				c0.864,0,1.111,0.989,1.729,2.347c1.731,4.694,3.83,10.995,6.795,14.207c2.347,2.594,5.681,2.718,9.388-2.223
				c0.865-0.865,2.223,0,1.36,1.111c-4.572,5.806-9.142,5.312-12.231,1.731c-2.594-2.841-4.447-7.413-6.054-11.489
				c-0.616,9.882-4.323,25.571-8.152,34.342c-4.325,9.264-10.008,10.624-13.713-0.742c-3.336-10.995-2.471-29.648-2.1-36.195
				c0-3.336,6.052-2.471,6.299,0.865C303.716,50.829,302.728,72.076,304.21,83.195z"/>
			<path fill="#DCB1D2" stroke="#DCB1D2" stroke-width="0.8" stroke-miterlimit="10" d="M342.506,85.047
				c1.482,5.93,4.694-1.113,5.188-2.718c3.829-8.03,4.694-12.724,8.03-22.977c0.124-1.113,2.347-0.618,1.852,0.987
				c-3.459,10.129-4.323,14.949-8.03,23.348c-1.605,3.459-4.323,7.906-7.783,5.806c-8.153-5.188-4.323-32.735-4.447-40.641
				c-0.371-3.089,5.806-2.347,6.423-0.124C343.864,52.681,340.53,77.759,342.506,85.047z M344.606,40.946
				c0,2.1-1.605,3.705-3.583,3.705c-2.1,0-3.581-1.605-3.581-3.705c0-2.101,1.482-3.707,3.581-3.707
				C343.001,37.24,344.606,38.845,344.606,40.946z"/>
			<path fill="#DCB1D2" stroke="#DCB1D2" stroke-width="0.8" stroke-miterlimit="10" d="M364.494,87.518
				c3.212,7.164,6.795,4.694,9.019,0.989c5.065-8.277,9.019-19.89,12.724-29.154c0.494-1.113,2.471-0.494,1.976,0.616
				c-3.705,9.513-7.041,20.013-12.847,29.648c-3.211,5.188-9.882,9.635-15.071,0.124c-10.871-19.272-5.93-85.115,14.578-87.833
				c5.434-0.74,6.052,5.188,5.065,10.377c-1.731,10.748-11.489,27.301-17.666,35.826C361.531,59.106,360.542,77.018,364.494,87.518z
				 M377.959,11.422c0.865-3.83,1.236-9.389-3.211-6.424c-8.153,5.312-11.366,28.29-12.231,38.667
				C368.324,35.016,375.86,22.046,377.959,11.422z"/>
		</g>
	</g>
	<g>
		<path fill="#DCB1D2" stroke="#DCB1D2" stroke-width="0.8" stroke-miterlimit="10" d="M191.104,44.374
			c0.747-2.349,1.888-4.131,3.424-5.346c1.534-1.215,3.397-1.822,5.586-1.822c2.589,0,4.672,0.791,6.247,2.373
			c1.575,1.582,2.363,3.674,2.363,6.277c0,2.283-0.548,4.118-1.642,5.506c-1.095,1.388-3.197,2.737-6.307,4.044l-0.4,0.18
			c-5.099,2.149-8.189,4.552-9.27,7.208c-1.108-2.669-4.192-5.072-9.25-7.208c-0.187-0.08-0.334-0.14-0.44-0.18
			c-3.123-1.308-5.229-2.649-6.317-4.024c-1.088-1.375-1.631-3.217-1.631-5.526c0-2.603,0.79-4.695,2.373-6.277
			c1.581-1.582,3.66-2.373,6.236-2.373c2.202,0,4.068,0.607,5.596,1.822C189.199,40.243,190.343,42.025,191.104,44.374z"/>
	</g>
	<g>
		<path fill="#DCB1D2" stroke="#DCB1D2" stroke-width="0.8" stroke-miterlimit="10" d="M419.916,44.374
			c0.747-2.349,1.888-4.131,3.424-5.346c1.534-1.215,3.397-1.822,5.586-1.822c2.589,0,4.672,0.791,6.247,2.373
			c1.574,1.582,2.363,3.674,2.363,6.277c0,2.283-0.548,4.118-1.642,5.506c-1.095,1.388-3.197,2.737-6.307,4.044l-0.4,0.18
			c-5.099,2.149-8.189,4.552-9.27,7.208c-1.108-2.669-4.192-5.072-9.25-7.208c-0.187-0.08-0.334-0.14-0.44-0.18
			c-3.123-1.308-5.229-2.649-6.317-4.024c-1.088-1.375-1.631-3.217-1.631-5.526c0-2.603,0.79-4.695,2.373-6.277
			c1.581-1.582,3.66-2.373,6.236-2.373c2.202,0,4.068,0.607,5.596,1.822C418.011,40.243,419.155,42.025,419.916,44.374z"/>
	</g>
</g>
</svg>
