<?xml version="1.0" encoding="utf-8"?>
<!-- Generator: Adobe Illustrator 17.0.0, SVG Export Plug-In . SVG Version: 6.00 Build 0)  -->
<!DOCTYPE svg PUBLIC "-//W3C//DTD SVG 1.1//EN" "http://www.w3.org/Graphics/SVG/1.1/DTD/svg11.dtd">
<svg version="1.1" id="Layer_1" xmlns="http://www.w3.org/2000/svg" xmlns:xlink="http://www.w3.org/1999/xlink" x="0px" y="0px"
	 width="611px" height="100px" viewBox="0 0 611 100" enable-background="new 0 0 611 100" xml:space="preserve">
<rect x="-1" y="-1" fill="#FAFAE7" width="614" height="102"/>
<g>
	<g>
		<g>
			<path fill="#DCB1D2" stroke="#DCB1D2" stroke-width="0.8" stroke-miterlimit="10" d="M230.363,17.03
				c2.547-5.445,4.918-9.045,6.674-10.802c1.053-1.23,2.547-2.371,4.127-2.635c12.207-2.019,9.309,42.594,2.108,60.597
				c-3.688,9.397-13.085,12.909-18.706,3.513c-0.527-0.79,0.527-1.405,1.054-0.615c5.971,8.431,10.538,3.337,13.173-4.567
				c6.323-19.057,8.343-65.515-0.966-55.503c-1.493,1.844-3.513,5.093-6.324,10.626C231.153,18.347,229.923,17.82,230.363,17.03z"/>
			<path fill="#DCB1D2" stroke="#DCB1D2" stroke-width="0.8" stroke-miterlimit="10" d="M261.451,60.326
				c-4.303,2.635-8.607,0.176-9.573-4.304c-1.493-7.113,1.756-14.314,7.904-17.3c2.283-1.054,6.323-1.844,9.045-0.439
				c0.088-0.527,0-1.141,0.088-1.581c0.176-1.844,5.006-2.459,5.094,0.088c-0.176,3.688-0.79,10.187-0.527,15.808
				c2.898-3.074,6.587-6.499,9.134-9.485c0.702-0.79,1.844-0.088,1.229,1.054c-3.249,3.601-6.938,6.938-10.187,10.451
				c1.054,10.451,2.371,36.006-8.607,41.89c-5.357,2.899-10.011,0.791-11.065-6.236c-1.844-11.504,9.573-27.575,15.369-33.898
				c-0.264-3.074-0.352-4.918-0.527-7.201C267.159,52.861,265.051,58.13,261.451,60.326z M255.392,90.624
				c1.053,6.06,4.479,7.289,8.255,3.688c6.85-6.938,6.587-27.751,5.884-35.918C264.349,64.453,253.547,79.91,255.392,90.624z
				 M260.749,58.92c3.601-1.844,6.85-10.802,7.904-12.997c0.088-2.635,0.088-3.952,0-6.323c-1.932-1.23-5.093-0.352-5.621-0.088
				C256.621,42.235,254.601,61.556,260.749,58.92z"/>
			<path fill="#DCB1D2" stroke="#DCB1D2" stroke-width="0.8" stroke-miterlimit="10" d="M288.851,63.136
				c2.284,5.093,4.83,3.337,6.411,0.702c3.601-5.884,6.411-14.139,9.045-20.726c0.352-0.79,1.756-0.351,1.405,0.439
				c-2.635,6.762-5.005,14.227-9.133,21.077c-2.283,3.688-7.025,6.85-10.714,0.088c-7.728-13.7-4.216-60.508,10.363-62.441
				c3.864-0.527,4.303,3.688,3.601,7.377c-1.23,7.641-8.168,19.408-12.559,25.468C286.743,42.937,286.04,55.671,288.851,63.136z
				 M298.423,9.038c0.615-2.722,0.878-6.674-2.283-4.567c-5.796,3.776-8.08,20.111-8.694,27.488
				C291.574,25.812,296.931,16.591,298.423,9.038z"/>
			<path fill="#DCB1D2" stroke="#DCB1D2" stroke-width="0.8" stroke-miterlimit="10" d="M306.678,53.212
				c0.79,4.83,3.776,8.607,8.694,6.148c5.621-2.722,11.241-11.68,13.964-16.247c0.527-0.702,2.02-0.351,1.23,0.878
				c-3.162,5.358-8.431,13.349-14.403,16.774c-5.796,3.25-11.241,1.054-13.085-4.654c-2.722-7.816,1.142-17.828,7.553-19.76
				c6.762-1.844,7.465,4.655,4.304,8.87C312.474,48.557,308.347,51.544,306.678,53.212z M314.231,43.728
				c1.405-2.196,2.107-6.762-1.932-5.27c-4.918,1.844-6.411,10.012-5.884,12.91C307.732,50.051,312.035,47.065,314.231,43.728z"/>
			<path fill="#DCB1D2" stroke="#DCB1D2" stroke-width="0.8" stroke-miterlimit="10" d="M344.09,39.336
				c-0.263,0.088-0.79-0.263-0.878-0.527c-2.283-6.674-8.167-6.674-10.011-1.581c-0.79,1.668-0.878,4.127-0.176,7.465
				c0.615,2.283,2.02,4.742,3.162,6.85c5.357-4.479,7.553-5.533,14.314-8.431c1.142-0.527,1.757,1.054,0.703,1.405
				c-7.114,2.371-11.066,5.621-14.403,8.431c2.02,3.513,4.654,7.201,5.094,11.153c0,0.264,0,0.527,0,0.615
				c0.175,2.635-0.615,4.479-1.932,5.533c-4.04,3.162-11.505,1.405-11.68-5.796c0-3.337,1.844-6.762,4.655-10.011
				c-1.756-2.898-3.337-5.884-4.215-9.309c-1.493-5.796-0.352-9.661,2.019-11.768c0.966-0.791,2.108-1.405,3.338-1.581
				c4.04-0.878,8.694,1.318,10.363,6.674C344.529,38.898,344.442,39.161,344.09,39.336z M333.903,55.847
				c-2.547,3.073-4.215,6.059-4.215,8.87c0.175,3.688,3.249,6.499,6.235,5.094c1.23-0.615,2.108-2.459,1.844-5.358
				C337.328,61.643,335.659,58.92,333.903,55.847z"/>
			<path fill="#DCB1D2" stroke="#DCB1D2" stroke-width="0.8" stroke-miterlimit="10" d="M353.398,61.38
				c1.054,4.215,3.337-0.79,3.688-1.932c2.722-5.708,3.338-9.046,5.708-16.335c0.088-0.79,1.668-0.439,1.318,0.702
				c-2.459,7.202-3.074,10.627-5.708,16.599c-1.142,2.459-3.074,5.621-5.533,4.127c-5.796-3.688-3.074-23.272-3.162-28.893
				c-0.264-2.195,4.128-1.668,4.567-0.088C354.365,38.37,351.993,56.198,353.398,61.38z M354.891,30.027
				c0,1.493-1.141,2.635-2.547,2.635c-1.493,0-2.547-1.141-2.547-2.635c0-1.493,1.054-2.635,2.547-2.635
				C353.75,27.393,354.891,28.535,354.891,30.027z"/>
			<path fill="#DCB1D2" stroke="#DCB1D2" stroke-width="0.8" stroke-miterlimit="10" d="M378.252,38.195
				c0.087-0.527,0.087-1.141,0.263-1.493c0.352-1.844,5.27-1.844,5.006,0.702c-1.054,5.972-3.864,19.233-1.844,24.414
				c0.878,1.493,2.196,0.966,3.337-0.088c4.479-4.127,7.816-13.348,10.89-18.618c0.527-0.527,1.581-0.088,1.142,0.79
				c-2.986,5.533-6.762,14.842-11.241,18.882c-1.932,1.668-4.128,2.371-5.708,1.318c-3.776-2.196-3.952-10.714-3.601-15.017
				c-2.107,3.425-4.479,8.343-8.343,10.099c-4.567,2.108-8.519-0.878-8.957-5.445c-0.615-7.201,3.513-13.964,10.011-16.159
				C371.578,36.79,375.705,36.526,378.252,38.195z M367.626,57.691c3.864-1.405,7.816-9.836,9.133-11.856
				c0.352-2.635,0.878-3.951,1.142-6.323c-1.756-1.493-5.006-0.966-5.621-0.79C365.606,40.654,361.215,59.536,367.626,57.691z"/>
		</g>
	</g>
	<g>
		<path fill="#DCB1D2" stroke="#DCB1D2" stroke-width="0.8" stroke-miterlimit="10" d="M192.369,40.238
			c0.715-2.247,1.807-3.952,3.275-5.114c1.468-1.162,3.249-1.743,5.344-1.743c2.477,0,4.469,0.757,5.976,2.27
			c1.506,1.513,2.26,3.515,2.26,6.005c0,2.183-0.524,3.939-1.571,5.267c-1.047,1.328-3.058,2.618-6.033,3.869l-0.383,0.172
			c-4.878,2.056-7.834,4.354-8.868,6.895c-1.06-2.554-4.01-4.852-8.849-6.895c-0.179-0.077-0.319-0.134-0.421-0.172
			c-2.988-1.251-5.002-2.534-6.043-3.85c-1.04-1.315-1.561-3.077-1.561-5.286c0-2.49,0.756-4.491,2.27-6.005
			c1.512-1.513,3.501-2.27,5.966-2.27c2.107,0,3.891,0.581,5.353,1.743C190.546,36.287,191.641,37.991,192.369,40.238z"/>
	</g>
	<g>
		<path fill="#DCB1D2" stroke="#DCB1D2" stroke-width="0.8" stroke-miterlimit="10" d="M424.654,40.238
			c0.715-2.247,1.807-3.952,3.275-5.114c1.468-1.162,3.249-1.743,5.344-1.743c2.477,0,4.469,0.757,5.976,2.27
			c1.506,1.513,2.26,3.515,2.26,6.005c0,2.183-0.524,3.939-1.571,5.267c-1.047,1.328-3.058,2.618-6.033,3.869l-0.383,0.172
			c-4.878,2.056-7.834,4.354-8.868,6.895c-1.06-2.554-4.01-4.852-8.849-6.895c-0.179-0.077-0.319-0.134-0.421-0.172
			c-2.988-1.251-5.002-2.534-6.043-3.85c-1.04-1.315-1.561-3.077-1.561-5.286c0-2.49,0.756-4.491,2.27-6.005
			c1.512-1.513,3.501-2.27,5.966-2.27c2.107,0,3.891,0.581,5.353,1.743C422.831,36.287,423.926,37.991,424.654,40.238z"/>
	</g>
</g>
</svg>
