<?xml version="1.0" encoding="utf-8"?>
<!-- Generator: Adobe Illustrator 17.0.0, SVG Export Plug-In . SVG Version: 6.00 Build 0)  -->
<!DOCTYPE svg PUBLIC "-//W3C//DTD SVG 1.1//EN" "http://www.w3.org/Graphics/SVG/1.1/DTD/svg11.dtd">
<svg version="1.1" id="Layer_1" xmlns="http://www.w3.org/2000/svg" xmlns:xlink="http://www.w3.org/1999/xlink" x="0px" y="0px"
	 width="600px" height="800px" viewBox="0 0 600 800" enable-background="new 0 0 600 800" xml:space="preserve">
<rect x="-6" y="-5" fill="#FBFBE7" width="611" height="811"/>
<g>
	<g>
		<rect x="69.033" y="47.406" fill="none" width="467.938" height="130.468"/>
		
			<text transform="matrix(1 0 0 1 211.8236 119.0964)" fill="#E5B6D4" stroke="#E5B6D4" stroke-width="2" stroke-miterlimit="10" font-family="'LillyMae-Regular'" font-size="97">Regalo</text>
	</g>
</g>
<g>
	<rect x="45.623" y="201.434" fill="none" width="514.758" height="129.366"/>
	<text transform="matrix(1 0 0 1 76.5911 228.0707)"><tspan x="0" y="0" fill="#78767A" font-family="'Allura-Regular'" font-size="45">Ya tenemos pensado el auto, la </tspan><tspan x="-12.127" y="43" fill="#78767A" font-family="'Allura-Regular'" font-size="45">mansión y el velero, lo único que </tspan><tspan x="148.136" y="86" fill="#78767A" font-family="'Allura-Regular'" font-size="45">nos falta...</tspan></text>
</g>
<rect x="45.623" y="688.661" fill="none" width="514.758" height="128.418"/>
<text transform="matrix(1 0 0 1 283.4578 709.9593)"><tspan x="0" y="0" fill="#78777A" font-family="'MyriadPro-Regular'" font-size="30">Pd: </tspan><tspan x="-222.627" y="36" fill="#78777A" font-family="'MyriadPro-Regular'" font-size="30">Tú presencia será nuestro mejor regalo</tspan></text>
<text transform="matrix(1 0 0 1 204.6792 404.0801)" fill="#78767A" font-family="'Allura-Regular'" font-size="45">Es el dinero!</text>
<g>
	<text transform="matrix(1 0 0 1 212.5981 491.6809)"><tspan x="0" y="0" fill="#78777A" font-family="'MyriadPro-Regular'" font-size="30">Matías Bordón</tspan><tspan x="2.221" y="36" fill="#78777A" font-family="'MyriadPro-Regular'" font-size="30">DNI 33120924</tspan><tspan x="-36.345" y="72" fill="#78777A" font-family="'MyriadPro-Regular'" font-size="30">BBVA Banco Frances</tspan><tspan x="-148.811" y="108" fill="#78777A" font-family="'MyriadPro-Regular'" font-size="30">Caja de ahorro en pesos 142-042403/0</tspan><tspan x="-108.596" y="144" fill="#78777A" font-family="'MyriadPro-Regular'" font-size="30">CBU 0170142140000004240309</tspan></text>
</g>
</svg>
