<?xml version="1.0" encoding="utf-8"?>
<!-- Generator: Adobe Illustrator 17.0.0, SVG Export Plug-In . SVG Version: 6.00 Build 0)  -->
<!DOCTYPE svg PUBLIC "-//W3C//DTD SVG 1.1//EN" "http://www.w3.org/Graphics/SVG/1.1/DTD/svg11.dtd">
<svg version="1.1" id="Layer_1" xmlns="http://www.w3.org/2000/svg" xmlns:xlink="http://www.w3.org/1999/xlink" x="0px" y="0px"
	 width="600px" height="800px" viewBox="0 0 600 800" enable-background="new 0 0 600 800" xml:space="preserve">
<rect x="-6" y="-6" fill="#FBFBE7" width="611" height="811"/>
<g>
	<rect x="46.621" y="628.836" fill="none" width="514.758" height="57.974"/>
	<text transform="matrix(1 0 0 1 81.7026 650.1354)"><tspan x="0" y="0" fill="#78767A" font-family="'MyriadPro-Regular'" font-size="30">Tu presencia será recompesada con </tspan><tspan x="-3.465" y="36" fill="#78767A" font-family="'MyriadPro-Regular'" font-size="30">comida, baile y mucha, mucha fiesta</tspan></text>
	<g>
		
			<text transform="matrix(1 0 0 1 177.675 479.141)" fill="#797779" font-family="'Tahoma-Bold'" font-size="23.1754" letter-spacing="2">Salón Espacio Márfil</text>
		<g>
			<g>
				<text transform="matrix(1 0 0 1 247.9177 517.5658)"><tspan x="0" y="0" fill="#797779" font-family="'Tahoma'" font-size="25.4929">R. Santamarina 205</tspan><tspan x="0" y="30.591" fill="#797779" font-family="'Tahoma'" font-size="25.4929">Monte Grande</tspan></text>
				<g>
					<line fill="#797779" stroke="#78767A" stroke-width="2" stroke-miterlimit="10" x1="229" y1="490" x2="229" y2="562"/>
					<g>
						<rect x="137.754" y="500.3" fill="none" width="76.846" height="57.913"/>
						<text transform="matrix(1 0 0 1 155.0208 519.6747)"><tspan x="0" y="0" fill="#797779" font-family="'Tahoma'" font-size="25.4929" letter-spacing="-1">21:00</tspan><tspan x="32.262" y="30.591" fill="#797779" font-family="'Tahoma'" font-size="25.4929" letter-spacing="-1">Hs</tspan></text>
					</g>
				</g>
			</g>
		</g>
	</g>
	<rect x="46.621" y="330.203" fill="none" width="514.758" height="128.418"/>
	<text transform="matrix(1 0 0 1 51.0139 351.5018)"><tspan x="0" y="0" fill="#78767A" font-family="'MyriadPro-Regular'" font-size="30">La misma será celebrada al término de la </tspan><tspan x="130.573" y="36" fill="#78767A" font-family="'MyriadPro-Regular'" font-size="30">ceremonia religiosa</tspan></text>
	<rect x="46.621" y="113.19" fill="none" width="514.758" height="187.462"/>
	<text transform="matrix(1 0 0 1 74.0552 139.8274)"><tspan x="0" y="0" fill="#78767A" font-family="'Allura-Regular'" font-size="45">Se necesitan invitados con o sin </tspan><tspan x="-21.98" y="54" fill="#78767A" font-family="'Allura-Regular'" font-size="45">experiencia para la celebración de </tspan><tspan x="134.119" y="108" fill="#78767A" font-family="'Allura-Regular'" font-size="45">nuestra boda</tspan></text>
</g>
</svg>
