<?xml version="1.0" encoding="utf-8"?>
<!-- Generator: Adobe Illustrator 17.0.0, SVG Export Plug-In . SVG Version: 6.00 Build 0)  -->
<!DOCTYPE svg PUBLIC "-//W3C//DTD SVG 1.1//EN" "http://www.w3.org/Graphics/SVG/1.1/DTD/svg11.dtd">
<svg version="1.1" id="Layer_1" xmlns="http://www.w3.org/2000/svg" xmlns:xlink="http://www.w3.org/1999/xlink" x="0px" y="0px"
	 width="600px" height="800px" viewBox="0 0 600 800" enable-background="new 0 0 600 800" xml:space="preserve">
<rect x="-5" y="-6" fill="#FBFBE7" width="611" height="811"/>
<g>
	<g>
		<g>
			<g>
				<path fill="#DCB1D2" stroke="#DCB1D2" stroke-width="0.8" stroke-miterlimit="10" d="M254.514,192.729
					c0.446-17.16-3.342-29.638-9.136-36.77c-5.571-6.014-12.478-6.683-20.053,2.007c-14.261,15.599-20.725,47.464-22.286,68.188
					c-1.338,20.945-0.892,54.37,11.366,71.53c8.021,11.14,18.941,4.011,26.293-4.237c12.927-14.038,22.951-38.105,27.854-52.366
					c0.892-2.227,4.237-1.335,3.345,1.115c-5.348,14.484-14.93,38.551-28.3,53.258c-10.028,11.143-21.84,18.495-34.094,12.701
					c-22.282-11.363-21.84-64.398-20.502-82.447c1.561-22.954,10.028-68.188,33.871-78.439c9.582-4.456,18.718-1.561,25.181,6.463
					c6.46,7.798,10.474,20.945,10.028,38.997C258.082,195.178,254.514,195.178,254.514,192.729z"/>
				<path fill="#DCB1D2" stroke="#DCB1D2" stroke-width="0.8" stroke-miterlimit="10" d="M275.685,286.541
					c2.676,10.697,8.467-2.007,9.359-4.902c6.909-14.484,8.47-22.951,14.484-41.446c0.223-2.007,4.234-1.115,3.345,1.781
					c-6.24,18.272-7.801,26.965-14.484,42.115c-2.899,6.24-7.801,14.261-14.038,10.474c-14.707-9.359-7.801-59.049-8.024-73.311
					c-0.669-5.571,10.474-4.234,11.589-0.223C278.138,228.158,272.12,273.395,275.685,286.541z M279.473,206.99
					c0,3.788-2.896,6.683-6.46,6.683c-3.788,0-6.463-2.896-6.463-6.683c0-3.791,2.676-6.686,6.463-6.686
					C276.577,200.304,279.473,203.199,279.473,206.99z"/>
				<path fill="#DCB1D2" stroke="#DCB1D2" stroke-width="0.8" stroke-miterlimit="10" d="M310.225,283.199
					c2.007,12.924,5.794,18.495,13.369,1.781c8.024-18.495,15.376-52.366,14.484-68.185c-0.223-2.007,0.223-2.453,1.784-2.453
					c1.558,0,2.004,1.784,3.119,4.234c3.122,8.467,6.909,19.833,12.258,25.627c4.234,4.679,10.248,4.902,16.934-4.011
					c1.561-1.561,4.011,0,2.453,2.004c-8.247,10.474-16.491,9.582-22.063,3.122c-4.679-5.125-8.021-13.373-10.92-20.725
					c-1.112,17.826-7.798,46.126-14.704,61.948c-7.801,16.711-18.052,19.164-24.735-1.338c-6.017-19.833-4.456-53.481-3.788-65.29
					c0-6.017,10.917-4.456,11.363,1.561C309.333,224.816,307.552,263.144,310.225,283.199z"/>
				<path fill="#DCB1D2" stroke="#DCB1D2" stroke-width="0.8" stroke-miterlimit="10" d="M379.305,286.541
					c2.673,10.697,8.467-2.007,9.359-4.902c6.906-14.484,8.467-22.951,14.484-41.446c0.223-2.007,4.234-1.115,3.342,1.781
					c-6.24,18.272-7.798,26.965-14.484,42.115c-2.896,6.24-7.798,14.261-14.038,10.474c-14.707-9.359-7.798-59.049-8.021-73.311
					c-0.669-5.571,10.474-4.234,11.586-0.223C381.755,228.158,375.741,273.395,379.305,286.541z M383.093,206.99
					c0,3.788-2.896,6.683-6.463,6.683c-3.788,0-6.46-2.896-6.46-6.683c0-3.791,2.673-6.686,6.46-6.686
					C380.197,200.304,383.093,203.199,383.093,206.99z"/>
				<path fill="#DCB1D2" stroke="#DCB1D2" stroke-width="0.8" stroke-miterlimit="10" d="M418.968,290.998
					c5.794,12.924,12.258,8.467,16.268,1.784c9.136-14.93,16.268-35.878,22.951-52.589c0.892-2.007,4.457-0.892,3.565,1.112
					c-6.683,17.16-12.701,36.101-23.174,53.481c-5.791,9.359-17.826,17.38-27.185,0.223
					c-19.61-34.763-10.697-153.534,26.296-158.436c9.802-1.335,10.917,9.359,9.136,18.718
					c-3.122,19.387-20.725,49.247-31.867,64.624C413.622,239.746,411.839,272.057,418.968,290.998z M443.257,153.732
					c1.561-6.909,2.23-16.937-5.791-11.589c-14.707,9.582-20.502,51.031-22.063,69.749
					C425.877,196.293,439.469,172.896,443.257,153.732z"/>
			</g>
		</g>
		<path fill="#DCB1D2" stroke="#DCB1D2" stroke-width="0.8" stroke-miterlimit="10" d="M442.932,339.499
			c-11.242-4.819-22.444-9.738-33.728-14.458c-2.539-1.061-3.762,2.482-2.405,4.133c1.869,2.276,3.753,4.538,5.671,6.771
			c-3.581,0.005-7.162,0.005-10.745,0.001c-61.825-0.073-133.811-1.392-195.558,0.9c-4.995-20.355-24.452-29.238-42.352-36.158
			c-1.863-0.72-3.421,1.372-3.036,3.037c3.344,14.499,14.079,27.592,27.875,33.309c-17.799,2.724-34.491,9.948-49.39,20.387
			c-1.834,1.285-1.374,3.632,0.582,4.45c21.589,9.029,46.331-5.971,63.06-18.88c0.554-0.428,0.837-0.983,0.938-1.555
			c0.201,0.058,0.41,0.107,0.649,0.115c62.079,2.072,134.389,0.436,196.543,0.053c3.998-0.025,7.994-0.044,11.99-0.057
			c-1.998,2.906-4.263,5.606-6.921,8.09c-2.098,1.962,0.077,5.615,2.797,4.806c11.155-3.32,22.285-6.705,33.404-10.142
			C444.24,343.703,445.144,340.447,442.932,339.499z M200.04,333.775c-10.273-8.876-20.883-17.427-31.505-25.886
			C181.614,313.335,194.685,320.375,200.04,333.775z M167.969,309.699c9.872,8.799,19.832,17.562,30.043,25.961
			C184.445,331.567,173.381,322.828,167.969,309.699z M193.951,340.302c-7.263,3.775-14.654,7.29-22.255,10.343
			c-6.551,2.631-17.508,9.034-24.463,7.445c-0.019-0.005-0.029,0.01-0.048,0.007C161.656,349.004,177.23,343.457,193.951,340.302z
			 M190.576,345.726c-10.336,6.729-22.063,12.954-33.879,13.811c5.061-1.356,10.281-3.916,14.097-5.337
			C177.534,351.69,184.11,348.836,190.576,345.726z"/>
	</g>
	<g>
		
			<text transform="matrix(1 0 0 1 174.7339 579.1665)" fill="#797779" font-family="'Tahoma-Bold'" font-size="22.9442" letter-spacing="1">Registro Civil de Ezeiza</text>
		<g>
			<text transform="matrix(1 0 0 1 314.2701 618.1284)"><tspan x="0" y="0" fill="#797779" font-family="'Tahoma'" font-size="25.2387" letter-spacing="-1">E.Echeverría 57</tspan><tspan x="0" y="30.286" fill="#797779" font-family="'Tahoma'" font-size="25.2387">Ezeiza</tspan></text>
			<g>
				<line fill="#797779" stroke="#797779" stroke-width="2" stroke-miterlimit="10" x1="296" y1="590" x2="296" y2="664"/>
				<g>
					<rect x="130.513" y="600.436" fill="none" width="149.441" height="63.099"/>
					<text transform="matrix(1 0 0 1 177.1627 619.6177)"><tspan x="0" y="0" fill="#797779" font-family="'Tahoma'" font-size="25.2387">Horario a </tspan><tspan x="-0.523" y="30.286" fill="#797779" font-family="'Tahoma'" font-size="25.2387">Confirmar</tspan></text>
				</g>
			</g>
		</g>
	</g>
	<g>
		<rect x="258.234" y="404.322" fill="none" width="83.533" height="54.632"/>
		<text transform="matrix(1 0 0 1 261.8113 443.9565)" fill="#78767A" font-family="'Amatic-Bold'" font-size="60">18/10</text>
		<text transform="matrix(1 0 0 1 263.2764 501.8628)" fill="#78767A" font-family="'Amatic-Bold'" font-size="69">2018</text>
	</g>
</g>
</svg>
