<?xml version="1.0" encoding="utf-8"?>
<!-- Generator: Adobe Illustrator 17.0.0, SVG Export Plug-In . SVG Version: 6.00 Build 0)  -->
<!DOCTYPE svg PUBLIC "-//W3C//DTD SVG 1.1//EN" "http://www.w3.org/Graphics/SVG/1.1/DTD/svg11.dtd">
<svg version="1.1" id="Layer_1" xmlns="http://www.w3.org/2000/svg" xmlns:xlink="http://www.w3.org/1999/xlink" x="0px" y="0px"
	 width="600px" height="800px" viewBox="0 0 600 800" enable-background="new 0 0 600 800" xml:space="preserve">
<g>
	<rect x="-6" y="-6" fill="#FBFBE7" width="611" height="811"/>
	<g>
		<g>
			<g>
				<path fill="#DCB1D2" stroke="#DCB1D2" stroke-width="0.8" stroke-miterlimit="10" d="M157.833,182.216
					c5.492-11.743,10.606-19.508,14.395-23.296c2.272-2.652,5.492-5.115,8.901-5.683c26.327-4.355,20.077,91.862,4.546,130.69
					c-7.955,20.266-28.221,27.841-40.343,7.576c-1.137-1.704,1.136-3.031,2.273-1.325c12.879,18.183,22.728,7.197,28.411-9.849
					c13.637-41.101,17.993-141.297-2.083-119.704c-3.221,3.977-7.577,10.985-13.638,22.917
					C159.538,185.057,156.886,183.92,157.833,182.216z"/>
				<path fill="#DCB1D2" stroke="#DCB1D2" stroke-width="0.8" stroke-miterlimit="10" d="M224.881,275.592
					c-9.28,5.682-18.562,0.379-20.645-9.282c-3.219-15.341,3.788-30.872,17.047-37.312c4.924-2.273,13.637-3.977,19.508-0.948
					c0.19-1.136,0-2.461,0.19-3.409c0.379-3.977,10.796-5.303,10.986,0.19c-0.379,7.955-1.704,21.971-1.137,34.093
					c6.25-6.63,14.205-14.016,19.699-20.456c1.515-1.704,3.977-0.19,2.651,2.273c-7.007,7.765-14.962,14.963-21.971,22.539
					c2.273,22.539,5.115,77.655-18.562,90.345c-11.553,6.252-21.592,1.706-23.865-13.449c-3.977-24.81,20.645-59.472,33.146-73.109
					c-0.569-6.63-0.758-10.607-1.137-15.531C237.192,259.493,232.646,270.857,224.881,275.592z M211.813,340.936
					c2.272,13.069,9.659,15.72,17.804,7.955c14.773-14.962,14.205-59.851,12.689-77.465
					C231.132,284.493,207.835,317.829,211.813,340.936z M223.366,272.561c7.765-3.977,14.774-23.296,17.046-28.032
					c0.19-5.682,0.19-8.523,0-13.637c-4.166-2.652-10.985-0.758-12.122-0.19C214.464,236.575,210.107,278.244,223.366,272.561z"/>
				<path fill="#DCB1D2" stroke="#DCB1D2" stroke-width="0.8" stroke-miterlimit="10" d="M283.974,281.653
					c4.925,10.985,10.417,7.197,13.828,1.515c7.765-12.69,13.826-30.494,19.508-44.699c0.758-1.704,3.788-0.757,3.03,0.948
					c-5.682,14.584-10.795,30.684-19.698,45.456c-4.924,7.955-15.152,14.774-23.107,0.19
					c-16.668-29.547-9.092-130.499,22.35-134.666c8.333-1.137,9.28,7.955,7.765,15.91c-2.652,16.478-17.616,41.858-27.085,54.927
					C279.429,238.09,277.913,265.554,283.974,281.653z M304.619,164.981c1.327-5.871,1.894-14.395-4.924-9.85
					c-12.501,8.144-17.426,43.374-18.751,59.284C289.847,201.157,301.4,181.269,304.619,164.981z"/>
				<path fill="#DCB1D2" stroke="#DCB1D2" stroke-width="0.8" stroke-miterlimit="10" d="M322.423,260.25
					c1.704,10.417,8.144,18.562,18.75,13.259c12.122-5.871,24.244-25.191,30.115-35.04c1.137-1.515,4.357-0.757,2.652,1.894
					c-6.819,11.555-18.183,28.79-31.063,36.176c-12.5,7.009-24.244,2.273-28.221-10.038c-5.871-16.856,2.463-38.449,16.289-42.616
					c14.584-3.977,16.099,10.04,9.282,19.13C334.923,250.211,326.022,256.651,322.423,260.25z M338.712,239.795
					c3.03-4.736,4.545-14.584-4.167-11.365c-10.607,3.977-13.828,21.593-12.69,27.842
					C324.695,253.432,333.976,246.992,338.712,239.795z"/>
				<path fill="#DCB1D2" stroke="#DCB1D2" stroke-width="0.8" stroke-miterlimit="10" d="M403.109,230.324
					c-0.567,0.19-1.704-0.567-1.894-1.136c-4.924-14.395-17.614-14.395-21.592-3.409c-1.704,3.598-1.894,8.901-0.379,16.099
					c1.325,4.924,4.357,10.227,6.819,14.773c11.553-9.659,16.289-11.932,30.872-18.183c2.463-1.136,3.789,2.273,1.516,3.031
					c-15.342,5.113-23.866,12.122-31.063,18.183c4.357,7.576,10.038,15.531,10.986,24.054c0,0.569,0,1.136,0,1.325
					c0.378,5.682-1.327,9.659-4.167,11.932c-8.713,6.819-24.812,3.031-25.191-12.501c0-7.197,3.977-14.583,10.038-21.592
					c-3.788-6.25-7.197-12.69-9.091-20.077c-3.221-12.501-0.758-20.835,4.355-25.38c2.083-1.706,4.546-3.031,7.198-3.41
					c8.713-1.894,18.751,2.842,22.35,14.395C404.057,229.378,403.867,229.945,403.109,230.324z M381.138,265.933
					c-5.492,6.628-9.091,13.068-9.091,19.129c0.378,7.955,7.007,14.016,13.447,10.986c2.652-1.327,4.546-5.304,3.977-11.555
					C388.525,278.432,384.926,272.561,381.138,265.933z"/>
				<path fill="#DCB1D2" stroke="#DCB1D2" stroke-width="0.8" stroke-miterlimit="10" d="M423.185,277.865
					c2.273,9.091,7.197-1.704,7.955-4.167c5.871-12.311,7.198-19.509,12.311-35.23c0.19-1.704,3.598-0.946,2.842,1.515
					c-5.304,15.532-6.629,22.918-12.311,35.798c-2.463,5.303-6.63,12.122-11.932,8.901c-12.501-7.955-6.63-50.192-6.819-62.314
					c-0.569-4.734,8.902-3.598,9.849-0.19C425.268,228.241,420.154,266.69,423.185,277.865z M426.404,210.247
					c0,3.221-2.461,5.682-5.492,5.682c-3.219,0-5.492-2.461-5.492-5.682c0-3.219,2.273-5.682,5.492-5.682
					C423.943,204.566,426.404,207.028,426.404,210.247z"/>
				<path fill="#DCB1D2" stroke="#DCB1D2" stroke-width="0.8" stroke-miterlimit="10" d="M476.787,227.862
					c0.188-1.136,0.188-2.461,0.567-3.219c0.758-3.977,11.365-3.977,10.796,1.515c-2.273,12.88-8.334,41.48-3.977,52.654
					c1.894,3.221,4.736,2.083,7.197-0.19c9.661-8.901,16.857-28.788,23.487-40.153c1.136-1.136,3.409-0.19,2.463,1.704
					c-6.44,11.932-14.584,32.01-24.244,40.722c-4.167,3.598-8.903,5.115-12.311,2.842c-8.144-4.736-8.523-23.108-7.767-32.388
					c-4.545,7.386-9.659,17.993-17.993,21.781c-9.849,4.546-18.372-1.894-19.319-11.743c-1.325-15.531,7.576-30.115,21.592-34.851
					C462.392,224.832,471.293,224.263,476.787,227.862z M453.868,269.91c8.334-3.031,16.857-21.214,19.698-25.57
					c0.758-5.682,1.894-8.522,2.463-13.637c-3.788-3.219-10.796-2.083-12.122-1.704C449.512,233.166,440.042,273.888,453.868,269.91
					z"/>
			</g>
			<path fill="#DCB1D2" d="M481.402,324.282c-11.188-4.795-22.335-9.691-33.565-14.388c-2.526-1.056-3.744,2.47-2.394,4.113
				c1.86,2.265,3.735,4.516,5.643,6.738c-3.563,0.005-7.128,0.005-10.693,0.001c-61.526-0.072-228.759-1.386-290.206,0.896
				c-4.97-20.256-24.333-29.096-42.147-35.983c-1.854-0.716-3.404,1.366-3.022,3.022c3.328,14.429,14.011,27.459,27.74,33.148
				c-17.713,2.711-34.324,9.899-49.151,20.288c-1.825,1.279-1.367,3.615,0.579,4.428c21.484,8.986,46.107-5.942,62.755-18.788
				c0.551-0.426,0.833-0.978,0.933-1.548c0.2,0.058,0.408,0.107,0.646,0.115c61.779,2.062,229.334,0.434,291.187,0.053
				c3.978-0.024,7.956-0.044,11.932-0.057c-1.988,2.892-4.242,5.578-6.888,8.051c-2.088,1.952,0.077,5.588,2.784,4.782
				c11.101-3.304,22.177-6.672,33.242-10.093C482.703,328.466,483.603,325.225,481.402,324.282z M144.09,318.586
				c-10.224-8.833-20.782-17.343-31.353-25.761C125.753,298.245,138.761,305.251,144.09,318.586z M112.175,294.627
				c9.824,8.756,19.736,17.477,29.898,25.835C128.57,316.388,117.56,307.691,112.175,294.627z M138.031,325.081
				c-7.227,3.757-14.583,7.255-22.147,10.293c-6.519,2.619-17.424,8.991-24.344,7.409c-0.019-0.005-0.029,0.01-0.048,0.007
				C105.892,333.741,121.391,328.221,138.031,325.081z M134.672,330.479c-10.286,6.697-21.956,12.892-33.714,13.744
				c5.036-1.35,10.231-3.897,14.029-5.311C121.693,336.414,128.238,333.574,134.672,330.479z"/>
		</g>
		<g>
			<g>
				<path fill="#797779" d="M271.844,443.324l-9.174,0.558c-0.569,0-1.078-0.166-1.529-0.499c-0.451-0.332-0.676-0.774-0.676-1.323
					v-0.235c0.843-1,1.548-2.318,2.117-3.955c0.568-1.637,0.97-2.71,1.205-3.221c2.294-5.076,4-9.733,5.116-13.968
					c1.118-4.234,1.677-8.811,1.677-13.732c0-4.92-0.961-7.458-2.882-7.615c-0.666,0.353-1.118,1.313-1.353,2.881
					c-0.235,1.47-0.833,2.206-1.793,2.206c-0.96,0-1.44-0.618-1.44-1.853c0-1.96,0.568-3.547,1.705-4.763
					c0.628-0.666,1.353-1,2.176-1v-0.03c2.078,0,3.588,0.647,4.529,1.941c0.685,0.962,1.121,1.823,1.308,2.588
					c0.186,0.765,0.313,1.372,0.382,1.823c0.068,0.451,0.122,1.029,0.162,1.735c0.059,1.059,0.088,2.598,0.088,4.617
					c0,2.019-0.352,4.647-1.058,7.88c-0.706,3.235-1.475,5.974-2.308,8.219c-0.834,2.245-1.877,4.946-3.132,8.101
					c-1.256,3.157-2.157,5.567-2.706,7.234c2.431-0.412,4.803-0.617,7.116-0.617c0.843,0.607,1.265,1.151,1.265,1.631
					C272.638,442.408,272.373,442.874,271.844,443.324z"/>
				<path fill="#797779" d="M278.02,407.508c0-4.92,0.862-8.008,2.587-9.263c0.706-0.509,1.548-0.765,2.529-0.765
					c5.764,0,8.645,10.214,8.645,30.641c0,10.077-2.156,15.115-6.469,15.115c-3.176,0-5.323-4.911-6.44-14.732
					C278.303,423.525,278.02,416.525,278.02,407.508z M281.136,414.33l0.618,5.881c0.019,6.117,0.46,11.341,1.323,15.673
					c0.628,3.078,1.558,4.617,2.793,4.617c0.588,0,1.108-0.598,1.559-1.793c0.471-1.196,0.803-2.647,1-4.353
					c0.391-3.175,0.582-5.65,0.573-7.424s-0.043-3.474-0.102-5.102c-0.059-1.628-0.157-3.548-0.294-5.764
					c-0.138-2.215-0.364-4.253-0.677-6.116c-0.313-1.862-0.696-3.636-1.146-5.322c-0.961-3.607-2.402-5.547-4.323-5.822
					c-0.628,0.529-1.044,1.049-1.25,1.558c-0.206,0.51-0.31,1.196-0.31,2.059L281.136,414.33z"/>
				<path fill="#797779" d="M296.162,445.03c-0.471,0-0.706-0.442-0.706-1.324c0-0.332,0.094-0.822,0.28-1.469
					s1.897-7.523,5.132-20.629c3.234-13.105,5.273-21.049,6.116-23.834c0.098-0.274,0.289-0.412,0.574-0.412
					c0.283,0,0.539,0.124,0.765,0.369c0.224,0.245,0.337,0.499,0.337,0.765c0,0.264-0.21,1.494-0.631,3.69
					c-0.423,2.195-2.093,9.096-5.014,20.702c-2.922,11.605-5.009,18.761-6.264,21.465
					C296.652,444.804,296.456,445.03,296.162,445.03z"/>
				<path fill="#797779" d="M316.688,443.677l-1.795,0.029c-0.666,0-1.146-0.102-1.44-0.309c-0.294-0.205-0.441-0.593-0.441-1.161
					c0-0.569,0.092-0.931,0.278-1.089c0.186-0.156,0.666-0.235,1.442-0.235c0.774,0,1.161-0.333,1.161-1
					c0-3.94-0.304-9.811-0.911-17.613s-0.911-13.575-0.911-17.32l0.088-2.205c0-1.882-0.696-2.823-2.087-2.823l-1.383,0.059
					c-1.137,0-1.705-0.431-1.705-1.294c0-1.059,1.617-1.588,4.852-1.588c1.685,0,2.714,0.334,3.087,1
					c-0.235,1.098-0.353,2.103-0.353,3.014c0,0.912,0.151,2.593,0.455,5.043c0.304,2.451,0.456,4.774,0.456,6.969
					c0,2.195,0.216,6.465,0.647,12.807s0.647,11.1,0.647,14.276v0.382c0.941-0.118,1.676-0.176,2.205-0.176v-0.029
					c1.706,0,2.559,0.499,2.559,1.499C323.539,443.089,321.255,443.677,316.688,443.677z"/>
				<path fill="#797779" d="M325.775,407.508c0-4.92,0.862-8.008,2.587-9.263c0.706-0.509,1.548-0.765,2.529-0.765
					c5.764,0,8.645,10.214,8.645,30.641c0,10.077-2.156,15.115-6.469,15.115c-3.176,0-5.323-4.911-6.44-14.732
					C326.058,423.525,325.775,416.525,325.775,407.508z M328.891,414.33l0.618,5.881c0.019,6.117,0.46,11.341,1.323,15.673
					c0.628,3.078,1.558,4.617,2.793,4.617c0.588,0,1.108-0.598,1.559-1.793c0.471-1.196,0.803-2.647,1-4.353
					c0.391-3.175,0.582-5.65,0.573-7.424c-0.01-1.774-0.043-3.474-0.102-5.102c-0.059-1.628-0.157-3.548-0.294-5.764
					c-0.138-2.215-0.364-4.253-0.677-6.116c-0.313-1.862-0.696-3.636-1.146-5.322c-0.962-3.607-2.402-5.547-4.323-5.822
					c-0.628,0.529-1.044,1.049-1.25,1.558c-0.206,0.51-0.31,1.196-0.31,2.059L328.891,414.33z"/>
			</g>
			<g>
				<path fill="#797779" d="M278.336,501.427l-10.551,0.643c-0.654,0-1.24-0.192-1.759-0.575c-0.519-0.383-0.777-0.891-0.777-1.522
					v-0.27c0.969-1.15,1.78-2.666,2.434-4.548c0.653-1.882,1.116-3.117,1.386-3.703c2.637-5.839,4.599-11.194,5.884-16.064
					c1.284-4.869,1.927-10.132,1.927-15.792c0-5.659-1.104-8.578-3.313-8.758c-0.767,0.406-1.286,1.51-1.556,3.314
					c-0.271,1.69-0.959,2.536-2.063,2.536c-1.104,0-1.657-0.711-1.657-2.131c0-2.254,0.653-4.08,1.961-5.479
					c0.721-0.766,1.556-1.15,2.503-1.15v-0.034c2.389,0,4.125,0.744,5.207,2.232c0.789,1.106,1.29,2.097,1.505,2.976
					c0.214,0.88,0.36,1.578,0.439,2.097c0.078,0.519,0.14,1.184,0.186,1.995c0.067,1.217,0.101,2.988,0.101,5.309
					c0,2.323-0.406,5.343-1.217,9.063c-0.811,3.72-1.696,6.871-2.654,9.452c-0.959,2.582-2.159,5.687-3.602,9.316
					c-1.443,3.63-2.48,6.403-3.11,8.319c2.794-0.473,5.523-0.709,8.183-0.709c0.969,0.699,1.454,1.324,1.454,1.876
					C279.248,500.374,278.944,500.909,278.336,501.427z"/>
				<path fill="#797779" d="M285.437,460.24c0-5.659,0.992-9.209,2.976-10.652c0.811-0.587,1.78-0.88,2.909-0.88
					c6.627,0,9.942,11.746,9.942,35.237c0,11.587-2.48,17.382-7.44,17.382c-3.652,0-6.121-5.648-7.405-16.942
					C285.763,478.658,285.437,470.61,285.437,460.24z M289.021,468.084l0.711,6.764c0.022,7.033,0.529,13.042,1.521,18.024
					c0.721,3.54,1.792,5.309,3.213,5.309c0.676,0,1.272-0.688,1.792-2.063c0.54-1.374,0.924-3.043,1.149-5.004
					c0.451-3.652,0.671-6.498,0.66-8.538c-0.012-2.041-0.05-3.996-0.119-5.867c-0.067-1.871-0.18-4.08-0.339-6.629
					c-0.157-2.547-0.417-4.892-0.777-7.033c-0.361-2.141-0.801-4.182-1.319-6.121c-1.106-4.149-2.762-6.38-4.971-6.696
					c-0.723,0.609-1.2,1.206-1.438,1.792c-0.236,0.587-0.354,1.376-0.354,2.367L289.021,468.084z"/>
				<path fill="#797779" d="M312.591,501.833l-2.062,0.035c-0.767,0-1.319-0.119-1.658-0.355c-0.337-0.236-0.507-0.682-0.507-1.336
					s0.107-1.071,0.322-1.251c0.214-0.18,0.766-0.271,1.657-0.271s1.336-0.383,1.336-1.15c0-4.531-0.351-11.282-1.049-20.255
					c-0.699-8.973-1.048-15.612-1.048-19.918l0.102-2.536c0-2.164-0.801-3.246-2.402-3.246l-1.589,0.067
					c-1.307,0-1.961-0.496-1.961-1.488c0-1.217,1.861-1.826,5.581-1.826c1.939,0,3.122,0.384,3.551,1.15
					c-0.271,1.263-0.406,2.418-0.406,3.465c0,1.049,0.174,2.982,0.523,5.8c0.349,2.818,0.525,5.489,0.525,8.014
					c0,2.526,0.247,7.435,0.744,14.727c0.496,7.294,0.743,12.766,0.743,16.418v0.441c1.083-0.136,1.928-0.203,2.536-0.203v-0.035
					c1.961,0,2.942,0.575,2.942,1.725C320.47,501.157,317.844,501.833,312.591,501.833z"/>
				<path fill="#797779" d="M323.38,494.444c0-2.311,0.54-6.048,1.623-11.21c1.082-5.162,1.623-8.595,1.623-10.297
					c0-1.702-0.248-3.404-0.744-5.106s-1.037-3.252-1.623-4.65c-1.578-3.719-2.379-6.684-2.401-8.894c0-4.711,1.6-7.067,4.802-7.067
					h1.455c1.487,0.901,2.439,1.685,2.857,2.349c0.417,0.666,0.715,1.202,0.897,1.607c0.157,0.406,0.281,0.969,0.371,1.69
					c0.136,1.128,0.203,2.266,0.203,3.416c0,1.149-0.011,2.006-0.034,2.57c-0.023,0.563-0.073,1.155-0.151,1.775
					c-0.08,0.619-0.142,1.161-0.186,1.623c-0.046,0.462-0.136,1.054-0.271,1.775l-0.304,1.623c-0.271,1.443-0.474,2.434-0.609,2.976
					c-0.136,0.541-0.305,1.263-0.508,2.164c-0.203,0.901-0.327,1.443-0.372,1.623c1.577,3.676,2.886,7.835,3.923,12.479
					s1.556,8.859,1.556,12.647c0,0.969-0.012,1.499-0.034,1.589l-0.034,0.372v0.034c-1.421,3.2-3.608,4.802-6.561,4.802
					c-1.037,0-1.933-0.327-2.688-0.981c-0.756-0.654-1.325-1.499-1.708-2.536C323.74,498.88,323.38,496.755,323.38,494.444z
					 M326.896,450.33h-0.709v-0.034c-0.631,0.7-0.947,1.838-0.947,3.415c0,1.579,0.293,3.839,0.879,6.781
					c0.587,2.942,1.161,5.28,1.725,7.016c1.014-3.584,1.522-7.022,1.522-10.314c0-0.969-0.158-2.361-0.474-4.176
					c-0.316-1.815-0.732-2.722-1.251-2.722L326.896,450.33z M328.553,476.2c-1.308,4.307-1.961,10.619-1.961,18.937v0.068
					c0,1.173,0.293,2.378,0.879,3.618v0.339c0.046,0.473,0.197,0.958,0.457,1.454c0.258,0.497,0.592,0.744,0.998,0.744
					c2.253,0,3.381-1.544,3.381-4.633c0-3.087-0.328-6.232-0.981-9.434C330.672,484.091,329.748,480.394,328.553,476.2z"/>
			</g>
		</g>
		<g>
			
				<text transform="matrix(1 0 0 1 111.8558 581.2793)" fill="#797779" font-family="'Tahoma-Bold'" font-size="22.94" letter-spacing="1">Parroquia Nstra Sra de Loreto</text>
			<g>
				<g>
					<text transform="matrix(1 0 0 1 233.5678 620.9756)"><tspan x="0" y="0" fill="#797779" font-family="'Tahoma'" font-size="25.24" letter-spacing="-1">Joaquín Castellanos 56</tspan><tspan x="0" y="30.288" fill="#797779" font-family="'Tahoma'" font-size="25.24" letter-spacing="-1">Barrio Uno - Ezeiza</tspan></text>
					<g>
						<line fill="#797779" stroke="#78767A" stroke-width="2" stroke-miterlimit="10" x1="212" y1="591" x2="212" y2="665"/>
						<g>
							<rect x="119.762" y="603.139" fill="none" width="79.389" height="59.829"/>
							<text transform="matrix(1 0 0 1 140.1625 622.3213)"><tspan x="0" y="0" fill="#797779" font-family="'Tahoma'" font-size="25.24" letter-spacing="-1">19:45</tspan><tspan x="31.941" y="30.288" fill="#797779" font-family="'Tahoma'" font-size="25.24" letter-spacing="-1">Hs</tspan></text>
						</g>
					</g>
				</g>
			</g>
		</g>
	</g>
</g>
</svg>
